<svg xmlns="http://www.w3.org/2000/svg" viewBox="0 0 693.17 105.05"><defs><style>.cls-1{fill:#27b3ab;}.cls-2{fill:#fff;}</style></defs><g id="Layer_2" data-name="Layer 2"><g id="Layer_1-2" data-name="Layer 1"><path class="cls-1" d="M41.81,44.93,0,23.11v55L41.81,58.88Z"/><path class="cls-2" d="M96.12,103.66H53.06V93.23l12.36-4.57v-72L53.06,11.91V1.59H96.12V12L83.76,16.78V88.66l12.36,4.57Z"/><path class="cls-2" d="M158.6,103.66l-28.1-83.6h-.6c.1,1.88.2,4.66.4,8.14s.3,7.15.4,11.32q.3,6,.3,11.32v52.92H114.55V1.59h25.52l27,80.22h.6l28.1-80.22h25.52V103.66H203.75V49.94c0-3.27,0-6.75.1-10.62s.3-7.55.4-11,.3-6.16.39-8.14h-.39L175,103.66Z"/><path class="cls-2" d="M278.39,1.59q19.89,0,29,8.34c6.08,5.56,9.17,13.1,9.17,22.83a37.23,37.23,0,0,1-3.69,16.49c-2.49,5.06-6.67,9.13-12.65,12.31s-13.76,4.57-23.82,4.57H266.23v37.63H247.9V1.59ZM277.2,16.68H266.13V50.84h8.37c7.48,0,13.16-1.3,17.25-4s6.17-7.24,6.17-13.4c0-5.66-1.69-9.83-5-12.61S284.27,16.68,277.2,16.68Z"/><path class="cls-2" d="M417.81,67.61a39.78,39.78,0,0,1-4.58,19.17,31.78,31.78,0,0,1-13.65,13.4c-6.08,3.28-13.86,4.87-23.22,4.87-13.26,0-23.42-3.48-30.3-10.33s-10.37-16.08-10.37-27.4V1.59H354V65.53c0,8.34,1.9,14.5,5.78,18.27s9.57,5.76,17,5.76c8,0,13.66-2.09,17.24-6.16s5.49-10.23,5.49-18V1.59h18.23Z"/><path class="cls-2" d="M443.82,103.66V1.59h18.34V88.27h42.75v15.49H443.82Z"/><path class="cls-2" d="M582.35,75.76q0,13.55-9.87,21.44c-6.58,5.26-15.74,7.85-27.4,7.85-11.26,0-20.83-1.89-28.7-5.76V82.21a128.86,128.86,0,0,0,14.25,5.26,56.92,56.92,0,0,0,15.74,2.29c6.08,0,10.67-1.2,13.46-3.58a11.92,11.92,0,0,0,4.28-9.43,11.56,11.56,0,0,0-5.48-10.13c-3.59-2.48-9-5.16-16-8.14a78.27,78.27,0,0,1-12-6.45,32.89,32.89,0,0,1-9.47-9.44c-2.49-3.77-3.69-8.63-3.69-14.59,0-8.74,3.09-15.59,9.17-20.45S541.09.1,551.46.1A67,67,0,0,1,566.7,1.79a90.57,90.57,0,0,1,14.35,4.86l-5.88,14.7a86.53,86.53,0,0,0-12.35-4.27,43.07,43.07,0,0,0-12-1.59c-5,0-8.77,1.19-11.36,3.47a10.68,10.68,0,0,0-3.89,8.54,11.17,11.17,0,0,0,2.19,7.15,19.22,19.22,0,0,0,6.58,5.26c3.09,1.59,7,3.48,11.76,5.56a92.18,92.18,0,0,1,14.05,7.45,26.33,26.33,0,0,1,8.87,9.33A25.88,25.88,0,0,1,582.35,75.76Z"/><path class="cls-2" d="M693.17,52.42c0,10.63-1.8,19.86-5.28,27.71a39.61,39.61,0,0,1-15.95,18.26c-7.17,4.37-16.14,6.56-27,6.56s-19.93-2.19-27.1-6.56a40.75,40.75,0,0,1-16-18.46c-3.49-8-5.18-17.18-5.18-27.7s1.69-19.66,5.18-27.41a39.82,39.82,0,0,1,16-18.27C625,2.18,634.07,0,645.13,0c10.77,0,19.74,2.18,26.81,6.55a39.2,39.2,0,0,1,15.95,18.27C691.47,32.67,693.17,41.9,693.17,52.42Zm-77,0c0,11.52,2.3,20.56,6.88,27.21s12,9.83,21.92,9.83c10.17,0,17.44-3.28,21.93-9.83s6.88-15.59,6.88-27.21-2.3-20.55-6.78-27.2S655.1,15.39,645,15.39s-17.44,3.28-22.12,9.83C618.43,31.87,616.13,40.91,616.13,52.42Z"/></g></g></svg>